<svg width="16" height="16" viewBox="0 0 16 16" fill="none" xmlns="http://www.w3.org/2000/svg">
<g clip-path="url(#clip0)">
<path d="M15.4419 3.03876C16.186 2.29457 16.186 1.30233 15.4419 0.558139C14.6977 -0.186047 13.7054 -0.186046 12.9612 0.55814L8 5.51938L3.03876 0.55814C2.29457 -0.186046 1.30233 -0.186047 0.55814 0.558139C-0.186046 1.30233 -0.186047 2.29457 0.558139 3.03876L5.51938 8L0.55814 12.9612C-0.186046 13.7054 -0.186046 14.6977 0.55814 15.4419C1.30233 16.186 2.29457 16.186 3.03876 15.4419L8 10.4806L12.9612 15.4419C13.7054 16.186 14.6977 16.186 15.4419 15.4419C16.186 14.6977 16.186 13.7054 15.4419 12.9612L10.4806 8L15.4419 3.03876Z" fill="#F4F4F4"/>
</g>
<defs>
<clipPath id="clip0">
<rect width="16" height="16" fill="white"/>
</clipPath>
</defs>
</svg>
