<svg width="16" height="16" viewBox="0 0 16 16" fill="none" xmlns="http://www.w3.org/2000/svg">
<path d="M15.4615 6.09052H4.06378C3.64431 6.09052 3.18251 6.38908 3.03472 6.75592L0.452348 11.6856C0.30439 12.0525 0.525413 12.351 0.945042 12.351H12.3426C12.7621 12.351 13.2239 12.0525 13.3717 11.6856L15.954 6.75607C16.102 6.38908 15.881 6.09052 15.4615 6.09052Z" fill="#F4F4F4"/>
<path d="M2.5734 6.59044C2.8009 6.05536 3.43707 5.6548 4.06394 5.6548H12.9195V4.86736C12.9195 4.50051 12.5781 4.20195 12.1586 4.20195H5.36384C5.22634 4.20195 5.11475 4.10432 5.11475 3.98402V3.66541C5.11475 3.29856 4.77334 3 4.35388 3H0.760712C0.341249 3 0 3.29856 0 3.66541V11.5033L2.5734 6.59044Z" fill="#F4F4F4"/>
</svg>
