<svg width="16" height="16" viewBox="0 0 16 16" fill="none" xmlns="http://www.w3.org/2000/svg">
<path fill-rule="evenodd" clip-rule="evenodd" d="M14.3928 3.87275H11.2503C10.852 3.87275 10.5201 3.5408 10.5201 3.14246V0.0221299V0L14.3928 3.87275ZM9.90041 0.0221246V3.14246C9.90041 3.89488 10.4979 4.49239 11.2503 4.49239H14.3707V15.0927C14.3707 15.6017 13.9723 16 13.4633 16H2.90733C2.39834 16 2 15.6017 2 15.0927V0.929455C2 0.420465 2.39834 0.0221246 2.90733 0.0221246H9.90041ZM8.10788 4.426H5.29737C5.12033 4.426 4.96542 4.55878 4.98755 4.73582C4.98755 4.91286 5.12033 5.04564 5.29737 5.04564H8.10788C8.28492 5.04564 8.4177 4.91286 8.4177 4.73582C8.4177 4.55878 8.28492 4.426 8.10788 4.426ZM5.29737 13.1674H11.1176C11.2725 13.1674 11.4274 13.0124 11.4274 12.8575C11.4274 12.6805 11.2946 12.5477 11.1176 12.5477H5.29737C5.12033 12.5477 4.98755 12.6805 4.98755 12.8575C4.98755 13.0346 5.12033 13.1674 5.29737 13.1674ZM5.29737 10.4675H11.1176C11.2725 10.4675 11.4274 10.3347 11.4274 10.1577C11.4274 9.98063 11.2946 9.84785 11.1176 9.84785H5.29737C5.12033 9.84785 4.98755 9.98063 4.98755 10.1577C4.98755 10.3347 5.12033 10.4675 5.29737 10.4675ZM11.1176 7.7455C11.2946 7.7455 11.4274 7.61272 11.4274 7.43568C11.4274 7.25864 11.2725 7.12586 11.1176 7.12586H5.29737C5.12033 7.12586 4.98755 7.25864 4.98755 7.43568C4.98755 7.61272 5.12033 7.7455 5.29737 7.7455H11.1176Z" fill="#F4F4F4"/>
</svg>
