<svg width="16" height="16" viewBox="0 0 16 16" fill="none" xmlns="http://www.w3.org/2000/svg">
<path d="M1.8189 11.1792L0.993639 5.0992C0.92627 4.64446 1.24627 4.24025 1.70101 4.17288L10.4252 2.97709C10.4589 2.97709 10.5095 2.97709 10.5431 2.97709C10.9474 2.97709 11.301 3.28025 11.3516 3.68446L11.4189 4.18972H12.4126L12.3284 3.56656C12.261 3.09498 12.0253 2.67393 11.6379 2.37077C11.2505 2.08445 10.7789 1.94972 10.3074 2.01708L1.56627 3.19603C0.572585 3.33077 -0.117943 4.24025 0.0167941 5.23394L0.84206 11.314C0.959955 12.2066 1.73469 12.8634 2.62733 12.8634H2.66101V11.8697C2.2568 11.9034 1.88627 11.6003 1.8189 11.1792Z" fill="currentColor"/>
<path d="M14.1978 5.09918H5.38939C4.3957 5.09918 3.58728 5.90761 3.58728 6.90129V13.0318C3.58728 14.0255 4.3957 14.8339 5.38939 14.8339H14.1978C15.1915 14.8339 15.9999 14.0255 15.9999 13.0318V6.90129C15.9999 5.90761 15.1915 5.09918 14.1978 5.09918ZM5.38939 6.07603H14.1978C14.6526 6.07603 15.0063 6.44656 15.0063 6.88445V12.0382L12.4126 9.07393C11.9747 8.56867 11.1999 8.56867 10.762 9.07393L8.53887 11.6508L7.73045 10.7581C7.32624 10.3034 6.61887 10.3034 6.21466 10.7581L4.58097 12.5603V6.90129C4.56413 6.44655 4.93465 6.07603 5.38939 6.07603Z" fill="currentColor"/>
<path d="M6.95573 9.22551C7.49522 9.22551 7.93257 8.78816 7.93257 8.24866C7.93257 7.70917 7.49522 7.27182 6.95573 7.27182C6.41623 7.27182 5.97888 7.70917 5.97888 8.24866C5.97888 8.78816 6.41623 9.22551 6.95573 9.22551Z" fill="currentColor"/>
</svg>
