<svg width="16" height="16" viewBox="0 0 16 16" fill="none" xmlns="http://www.w3.org/2000/svg">
<path d="M9.69296 0.000399673C9.60255 0.00892075 9.5186 0.0509607 9.45762 0.118252C9.39663 0.185543 9.36304 0.273215 9.36343 0.364027V10.4717C8.8155 10.0482 8.04497 9.81834 7.18166 9.81834C6.39055 9.81834 5.50583 9.9427 4.61355 10.2615C3.56757 10.6352 2.67748 11.1817 2.03975 11.8126C1.40201 12.4435 1 13.1712 1 13.9148C1 14.1148 1.03764 14.3108 1.10227 14.4944C1.28652 15.0177 1.70804 15.4007 2.23292 15.6421C2.75781 15.8834 3.39257 16 4.09083 16C4.84284 16 5.65805 15.8438 6.47714 15.5511C7.49661 15.1869 8.37835 14.6472 9.02253 14.0341C9.6667 13.4211 10.0907 12.7258 10.0907 12.0001V0.767426C11.636 0.876429 13.4256 1.64425 14.1531 2.74465C14.1775 2.78857 14.2108 2.82695 14.2509 2.85735C14.2909 2.88775 14.3368 2.90953 14.3857 2.9213C14.4346 2.93306 14.4853 2.93457 14.5348 2.92572C14.5843 2.91687 14.6314 2.89786 14.6732 2.86988C14.715 2.84191 14.7505 2.80557 14.7775 2.76318C14.8045 2.72079 14.8224 2.67325 14.8302 2.62358C14.8379 2.5739 14.8352 2.52316 14.8223 2.47457C14.8095 2.42598 14.7866 2.38058 14.7553 2.34125C13.757 0.831184 11.5753 0.000399673 9.72705 0.000399673C9.7157 -0.000133224 9.70432 -0.000133224 9.69296 0.000399673Z" fill="currentColor"/>
</svg>
