<svg width="16" height="16" viewBox="0 0 16 16" fill="none" xmlns="http://www.w3.org/2000/svg">
<path fill-rule="evenodd" clip-rule="evenodd" d="M2.11628 16H5.13023C5.76279 16 6.24651 15.5163 6.24651 14.9209V1.11628C6.24651 0.52093 5.76279 0 5.13023 0H2.11628C1.48372 0 1 0.52093 1 1.11628V14.8837C1 15.5163 1.48372 16 2.11628 16ZM10.8976 16H13.9116C14.5069 16 15.0279 15.5163 15.0279 14.9209V1.11628C15.0279 0.52093 14.5441 0 13.9116 0H10.8976C10.2651 0 9.78135 0.52093 9.78135 1.11628V14.8837C9.78135 15.5163 10.2651 16 10.8976 16Z" fill="currentColor"/>
</svg>
