<svg width="16" height="16" viewBox="0 0 16 16" fill="none" xmlns="http://www.w3.org/2000/svg">
<g clip-path="url(#clip0)">
<path d="M15.7093 2.36036L13.6399 0.290988C13.492 0.143159 13.3013 0.0457354 13.0948 0.0125775C12.8883 -0.0205805 12.6766 0.0122161 12.4899 0.106301C12.4738 0.100847 12.4565 0.100005 12.4399 0.10387C12.4233 0.107735 12.4082 0.116154 12.3961 0.128176L12.2336 0.290676L2.42098 10.1031L1.3094 11.2156C1.29596 11.2291 1.28711 11.2465 1.28408 11.2653L1.2719 11.2531L0 16L4.74695 14.7281L4.73476 14.7159C4.75357 14.7129 4.77095 14.7041 4.78445 14.6906L15.8721 3.60317C15.8842 3.59113 15.8926 3.57598 15.8964 3.55941C15.9003 3.54284 15.8995 3.52553 15.894 3.50942C15.9879 3.32277 16.0206 3.1113 15.9874 2.90503C15.9542 2.69876 15.8569 2.50818 15.7093 2.36036V2.36036Z" fill="#F4F4F4"/>
</g>
<defs>
<clipPath id="clip0">
<rect width="16" height="16" fill="white"/>
</clipPath>
</defs>
</svg>
