<svg width="16" height="16" viewBox="0 0 16 16" fill="none" xmlns="http://www.w3.org/2000/svg">
<g>
<path d="M9.33333 1.33333C9.33333 0.533333 8.8 0 8 0C7.2 0 6.66667 0.533333 6.66667 1.33333V6.66667H1.33333C0.533333 6.66667 0 7.2 0 8C0 8.8 0.533333 9.33333 1.33333 9.33333H6.66667V14.6667C6.66667 15.4667 7.2 16 8 16C8.8 16 9.33333 15.4667 9.33333 14.6667V9.33333H14.6667C15.4667 9.33333 16 8.8 16 8C16 7.2 15.4667 6.66667 14.6667 6.66667H9.33333V1.33333Z" fill="currentColor"/>
</g>
<defs>
</defs>
</svg>
