<svg width="16" height="16" viewBox="0 0 16 16" fill="none" xmlns="http://www.w3.org/2000/svg">
<path d="M3.11111 1C1.52353 1 0.222222 2.30129 0.222222 3.88889C0.222222 5.47649 1.52353 6.77778 3.11111 6.77778C4.69869 6.77778 6 5.47649 6 3.88889C6 2.30129 4.69869 1 3.11111 1ZM6 3.88889C6 5.47649 7.30131 6.77778 8.88889 6.77778C10.4765 6.77778 11.7778 5.47649 11.7778 3.88889C11.7778 2.30129 10.4765 1 8.88889 1C7.30131 1 6 2.30129 6 3.88889ZM8.88889 6.77778H3.11111H0.666667C0.3176 6.77782 4.44444e-05 7.09541 0 7.44444V14.1111C4.44444e-05 14.4602 0.3176 14.7777 0.666667 14.7778H11.3333C11.6824 14.7777 12 14.4602 12 14.1111V13.2083L15.1528 14.0833C15.5466 14.1941 15.9982 13.8535 16 13.4445V8.11111C15.9752 7.53993 15.5481 7.3855 15.1528 7.46528L12 8.34028V7.44444C11.9927 7.16352 11.6958 6.77844 11.3333 6.77778H8.88889V6.77778ZM3.11111 2.33333C3.97811 2.33333 4.66667 3.02189 4.66667 3.88889C4.66667 4.75589 3.97811 5.44444 3.11111 5.44444C2.24411 5.44444 1.55556 4.75589 1.55556 3.88889C1.55556 3.02189 2.24411 2.33333 3.11111 2.33333ZM8.88889 2.33333C9.75589 2.33333 10.4444 3.02189 10.4444 3.88889C10.4444 4.75589 9.75589 5.44444 8.88889 5.44444C8.02189 5.44444 7.33333 4.75589 7.33333 3.88889C7.33333 3.02189 8.02189 2.33333 8.88889 2.33333ZM1.33333 8.11111H10.6667V13.4445H1.33333V8.11111V8.11111ZM14.6667 8.98611V12.5625L12 11.8195V9.72917L14.6667 8.98611Z" fill="currentColor"/>
</svg>
