<svg width="24" height="24" viewBox="0 0 24 24" fill="none" xmlns="http://www.w3.org/2000/svg">
<path fill-rule="evenodd" clip-rule="evenodd" d="M23 17.1429H24V2.29029C24 1.02743 23.101 0 21.996 0H6V1.14286H21.996C22.55 1.14286 23 1.65714 23 2.29029V17.1429ZM21 20.5714H20V5.71887C20 5.08573 19.55 4.57145 18.996 4.57145H3V3.42859H18.996C20.101 3.42859 21 4.45602 21 5.71887V20.5714ZM2.004 24H15.995C17.1 24 17.999 22.9725 17.999 21.7097V9.1474C17.999 7.88454 17.099 6.85712 15.995 6.85712H2.004C0.899 6.85712 0 7.88454 0 9.1474V21.7097C0 22.9725 0.899 24 2.004 24ZM1 9.1474C1 8.51426 1.45 7.99997 2.004 7.99997H15.995C16.549 7.99997 16.999 8.51426 16.999 9.1474V21.7097C16.999 22.3428 16.549 22.8571 15.995 22.8571H2.004C1.45 22.8571 1 22.3428 1 21.7097V9.1474ZM6 18L6.705 18.5211L11.705 15.9497V14.9074L6.705 12.336L6 12.8571V18ZM7 17.1154V13.7406L10.282 15.4274L7 17.1154Z" fill="#151515"/>
</svg>
